<svg width="96" height="96" viewBox="0 0 96 96" fill="none" xmlns="http://www.w3.org/2000/svg">
  <rect width="96" height="96" rx="24" fill="#FFF3E6"/>
  <path d="M48 78C53.1 78 57.2 74.4 58.1 69.6H37.9C38.8 74.4 42.9 78 48 78Z" fill="#8B5E3C"/>
  <path d="M72 62.8C67.7 58.7 65.9 54.6 65.9 46.6V40.5C65.9 31.8 60.1 24.4 52.1 22.1V18.8C52.1 16.5 50.3 14.7 48 14.7C45.7 14.7 43.9 16.5 43.9 18.8V22.1C35.9 24.4 30.1 31.8 30.1 40.5V46.6C30.1 54.6 28.3 58.7 24 62.8C22.5 64.2 23.5 66.8 25.6 66.8H70.4C72.5 66.8 73.5 64.2 72 62.8Z" fill="#C97948"/>
  <circle cx="66" cy="26" r="11" fill="#D92D20"/>
  <path d="M66 20V32" stroke="white" stroke-width="4" stroke-linecap="round"/>
</svg>
